# xmcd
#
# Track frame offsets:
#	150
#	20255
#	45145
#	64250
#	84847
#	106427
#	125800
#	148392
#	170365
#	191760
#	216582
#	238557
#	260427
#	280957
#	302425
#
# Disc length: 4265 seconds
#
# Revision: 0
# Processed by: cddbd v1.5.2PL0 Copyright (c) Steve Scherf et al.
# Submitted via: dBpowerAMP V4.0
#
DISCID=d810a70f
DTITLE=張信哲 - 深情
DYEAR=1996
DGENRE=Blues
TTITLE0=今夜唱甚麼歌
TTITLE1=最傷心是誰
TTITLE2=他有甚麼好
TTITLE3=我應該走
TTITLE4=愛與不愛之間
TTITLE5=注定相愛
TTITLE6=過火
TTITLE7=風
TTITLE8=一生不捨棄
TTITLE9=仍然心痛
TTITLE10=不必多說話
TTITLE11=不要對他說
TTITLE12=愛如潮水
TTITLE13=別怕我傷心
TTITLE14=有一點心動
EXTD=
EXTT0=
EXTT1=
EXTT2=
EXTT3=
EXTT4=
EXTT5=
EXTT6=
EXTT7=
EXTT8=
EXTT9=
EXTT10=
EXTT11=
EXTT12=
EXTT13=
EXTT14=
PLAYORDER=
